<svg id="Capa_1" enable-background="new 0 0 512 512" height="512" viewBox="0 0 512 512" width="512" xmlns="http://www.w3.org/2000/svg"><g><path d="m255.862 30c-16.542 0-30 13.458-30 30s13.458 30 30 30 30-13.458 30-30-13.458-30-30-30zm0 45c-8.271 0-15-6.729-15-15s6.729-15 15-15 15 6.729 15 15-6.729 15-15 15z"/><path d="m269.84 213.307-6.458.906v88.187h15v-75.334c24.604-4.911 47.035-17.854 63.726-36.894 18.313-20.893 28.398-47.716 28.398-75.528 0-27.649-9.982-54.354-28.109-75.197l-11.318 9.844c15.752 18.112 24.428 41.322 24.428 65.354-.001 49.394-36.829 91.81-85.667 98.662z"/><path d="m255.862 15c24.033 0 47.243 8.676 65.355 24.428l9.844-11.318c-20.843-18.128-47.549-28.11-75.199-28.11-29.224 0-57.057 11-78.37 30.974-21.211 19.877-33.993 46.746-35.991 75.657l14.965 1.035c3.591-51.963 47.251-92.666 99.396-92.666z"/><path d="m320.689 422.001h-27.308v-15.854h27.14c12.406 0 22.5-10.094 22.5-22.5s-10.094-22.5-22.5-22.5h-42.14v-43.747h-15v58.746h57.14c4.136 0 7.5 3.364 7.5 7.5s-3.364 7.5-7.5 7.5h-42.14v45.854h42.308c4.136 0 7.5 3.364 7.5 7.5 0 4.135-3.364 7.499-7.5 7.499h-57.308v37.5c0 4.136-3.364 7.5-7.5 7.5s-7.51-3.373-7.52-7.501l-.005-67.926-15 .002.005 67.943c.03 12.396 10.132 22.481 22.52 22.481 12.407 0 22.5-10.094 22.5-22.5v-22.498h42.308c12.406 0 22.5-10.093 22.5-22.499s-10.093-22.5-22.5-22.5z"/><path d="m248.341 214.213-6.458-.906c-46.276-6.492-82.202-45.051-85.425-91.685l-14.965 1.034c1.807 26.146 12.688 51.11 30.638 70.293 16.363 17.487 37.901 29.448 61.21 34.114l.014 179.511 15-.002z"/><path d="m278.587 180.505 4.877 14.186c31.216-10.734 53.449-38.93 56.643-71.831l-14.93-1.449c-2.627 27.069-20.915 50.266-46.59 59.094z"/><path d="m340.112 106.434c-.543-5.634-1.655-11.225-3.307-16.617l-14.342 4.393c1.356 4.432 2.271 9.028 2.717 13.662z"/></g></svg>